<svg id="Group_939" data-name="Group 939" xmlns="http://www.w3.org/2000/svg" xmlns:xlink="http://www.w3.org/1999/xlink" width="80" height="81.285" viewBox="0 0 80 81.285">
  <defs>
    <clipPath id="clip-path">
      <rect id="Rectangle_521" data-name="Rectangle 521" width="80" height="81.285" fill="#1d3a67"/>
    </clipPath>
  </defs>
  <g id="Group_893" data-name="Group 893" clip-path="url(#clip-path)">
    <path id="Path_3700" data-name="Path 3700" d="M70.066,55.171l-5.41,2.095c-.191-1.188-1.089-1.3-2.16-1.3-6.42.026-12.839.013-19.259.013-1.374,0-1.969.389-1.976,1.285s.625,1.328,1.95,1.328H62.693c-.354.3-.554.451-.731.625-1.144,1.13-2.331,2.222-3.4,3.419a1.712,1.712,0,0,1-1.446.661c-4.589-.021-9.179-.011-13.768-.011-.219,0-.438-.008-.656,0a1.327,1.327,0,0,0-1.431,1.351A1.285,1.285,0,0,0,42.688,65.9c2.759.016,5.518.008,8.277.009h5.356c-.11.28-.2.491-.277.7-.4,1.07-.869,2.122-1.188,3.217a.951.951,0,0,1-1.128.815c-3.114-.038-6.228-.017-9.342-.017H43.238c-1.37,0-1.964.387-1.976,1.287s.6,1.329,1.938,1.33H54.049V77.96h-.886q-5,0-10,0a5.142,5.142,0,0,0-.818.031,1.19,1.19,0,0,0-1.075,1.159,1.171,1.171,0,0,0,.877,1.313,3.662,3.662,0,0,0,1.05.106c3.551.007,7.1.018,10.654-.009a.832.832,0,0,1,.961.708c.415,1.318.924,2.606,1.429,4h-.884q-6.106,0-12.211,0a3.58,3.58,0,0,0-.972.091,1.274,1.274,0,0,0,.143,2.474,5.675,5.675,0,0,0,.981.044c4.644,0,9.288.01,13.932-.009a1.5,1.5,0,0,1,1.239.586c1.279,1.406,2.628,2.75,3.937,4.1-.151.007-.432.03-.713.03q-9.261,0-18.521,0a3.584,3.584,0,0,0-.9.047,1.3,1.3,0,0,0,.088,2.544,3.315,3.315,0,0,0,.654.024q9.916,0,19.832,0c1.14,0,1.428-.208,1.8-1.271L70.1,96.046c0,1.771.015,3.653-.025,5.533,0,.176-.333.379-.548.505-.122.072-.32.014-.484.014H20.53c-1.082,0-1.084,0-1.084-1.062q0-29.748-.017-59.5c0-.819.2-1.091,1.046-1.071,2.348.054,4.7.029,7.047.01a.7.7,0,0,1,.816.567,4.144,4.144,0,0,0,4.072,2.976q12.374.035,24.749,0a4.132,4.132,0,0,0,4.055-3,.658.658,0,0,1,.751-.538q3.687.022,7.376,0c.477,0,.775.092.772.672-.017,4.644-.015,9.287-.022,13.931,0,.051-.031.1-.025.084M52.891,48.654H45.767c-1.065,0-2.13-.019-3.194.01a1.265,1.265,0,0,0-1.312,1.281,1.3,1.3,0,0,0,1.289,1.318c.244.021.491.009.737.009H60.811c.819,0,1.639.029,2.456-.012A1.291,1.291,0,0,0,64.5,49.486a1.374,1.374,0,0,0-1.45-.837c-3.385.012-6.769.006-10.154.005m-24.113,43.5c-.7-.737-1.343-1.476-2.05-2.151a1.255,1.255,0,0,0-1.832,0,1.276,1.276,0,0,0,.01,1.835q1.439,1.509,2.946,2.952a1.257,1.257,0,0,0,1.839.05c.422-.344.812-.727,1.216-1.094,1.979-1.795,3.965-3.581,5.932-5.39a1.3,1.3,0,1,0-1.716-1.956c-.234.187-.446.4-.668.6l-5.677,5.148M28.8,54.771c-.638-.669-1.244-1.331-1.88-1.962a1.324,1.324,0,1,0-1.854,1.837c.84.857,1.691,1.7,2.543,2.546.884.875,1.438.879,2.382.024q3.242-2.938,6.482-5.879a3.983,3.983,0,0,0,.581-.572,1.224,1.224,0,0,0-.088-1.707,1.2,1.2,0,0,0-1.634-.171,5.513,5.513,0,0,0-.685.58c-1.917,1.738-3.833,3.477-5.846,5.3m-.049,12.5c-.688-.746-1.323-1.5-2.025-2.177a1.25,1.25,0,0,0-1.831,0,1.276,1.276,0,0,0,.013,1.835q1.439,1.509,2.946,2.952a1.254,1.254,0,0,0,1.838.048c.464-.379.894-.8,1.338-1.2,1.938-1.759,3.883-3.509,5.809-5.282A1.3,1.3,0,1,0,35.122,61.5c-.234.187-.446.4-.668.6l-5.7,5.171M28.778,79.7c-.658-.7-1.254-1.376-1.889-2.008a1.317,1.317,0,1,0-1.852,1.834c.857.878,1.727,1.742,2.6,2.6.848.837,1.423.843,2.324.026q2.909-2.636,5.811-5.28a13.908,13.908,0,0,0,1.25-1.174A1.286,1.286,0,0,0,35.3,73.823a5.585,5.585,0,0,0-.621.53c-1.918,1.739-3.835,3.479-5.9,5.351" transform="translate(-13.06 -27.202)" fill="#1d3a67"/>
    <path id="Path_3701" data-name="Path 3701" d="M15.035,21.137v3.629c-.321.015-.61.04-.9.04-2.322,0-4.643,0-6.965,0-2.24.006-3.4,1.153-3.4,3.365q0,30.073,0,60.145A2.974,2.974,0,0,0,7.1,91.652q24.624,0,49.247,0a2.985,2.985,0,0,0,3.313-3.28c.005-1.661,0-3.322,0-5.028h3.714c.019.233.053.465.054.7,0,2.486.01,4.971,0,7.457a3.675,3.675,0,0,1-3.959,3.924q-27.779,0-55.557,0A3.639,3.639,0,0,1,0,91.544Q0,58.235,0,24.925a3.581,3.581,0,0,1,3.6-3.856c3.713-.069,7.429-.02,11.143-.016a1.337,1.337,0,0,1,.294.085" transform="translate(0 -14.138)" fill="#1d3a67"/>
    <path id="Path_3702" data-name="Path 3702" d="M151.084,128.481a18.231,18.231,0,1,1,18.263-18.122,18.2,18.2,0,0,1-18.263,18.122m12.019-8.319A15.568,15.568,0,0,0,139.69,99.656c-6.009,6.507-4.874,15.763-.525,20.469,2.394-5.221,6.35-8.245,12.194-8.154,5.623.088,9.422,3.088,11.744,8.192" transform="translate(-89.347 -61.854)" fill="#1d3a67"/>
    <path id="Path_3703" data-name="Path 3703" d="M67.931,14.217q-5.9,0-11.794,0c-1.668,0-2.189-.532-2.191-2.217,0-1.8-.009-3.6,0-5.406A1.638,1.638,0,0,1,55.807,4.73c1.556-.009,3.113-.016,4.668,0a1.885,1.885,0,0,0,1.88-1.162,6.2,6.2,0,0,1,11.227,0A1.884,1.884,0,0,0,75.46,4.733c1.556-.018,3.113-.011,4.669,0A1.655,1.655,0,0,1,82,6.59c.011,1.829,0,3.658,0,5.488,0,1.56-.565,2.136-2.113,2.138q-5.979.006-11.958,0m.064-7.294a1.861,1.861,0,1,0-.05-3.721,1.861,1.861,0,1,0,.05,3.721" transform="translate(-36.259 0)" fill="#1d3a67"/>
    <path id="Path_3704" data-name="Path 3704" d="M162.73,41.742h-3.769v-.835q0-6.349,0-12.7a3.035,3.035,0,0,0-3.39-3.385c-2.593-.007-5.186,0-7.845,0V21.1c.27-.013.535-.037.8-.037q5.038,0,10.076,0c2.647.006,4.128,1.477,4.129,4.1q.005,7.864,0,15.728v.859" transform="translate(-99.297 -14.152)" fill="#1d3a67"/>
    <path id="Path_3705" data-name="Path 3705" d="M168.889,117.282a6.42,6.42,0,1,1,6.374,6.421,6.376,6.376,0,0,1-6.374-6.421" transform="translate(-113.524 -74.523)" fill="#1d3a67"/>
  </g>
</svg>
