<svg id="Group_946" data-name="Group 946" xmlns="http://www.w3.org/2000/svg" xmlns:xlink="http://www.w3.org/1999/xlink" width="80.023" height="80" viewBox="0 0 80.023 80">
  <defs>
    <clipPath id="clip-path">
      <rect id="Rectangle_548" data-name="Rectangle 548" width="80.023" height="80" fill="#1d3a67"/>
    </clipPath>
  </defs>
  <g id="Group_911" data-name="Group 911" clip-path="url(#clip-path)">
    <path id="Path_3781" data-name="Path 3781" d="M81.429,82.464H38c-1.666,0-2.047-.372-2.047-2q0-23.362,0-46.723v-.811c1.264-.206,2.464-.322,3.623-.606a14.744,14.744,0,0,0,9.449-7.087,1.273,1.273,0,0,1,1.281-.721q18.453.027,36.906.013h1.1V10.741H87.287q-18.5,0-36.993.015a1.2,1.2,0,0,1-1.268-.74,21.12,21.12,0,0,0-1.25-1.948,3.483,3.483,0,0,1,.548-.088q20.566-.006,41.131,0c1.176,0,1.687.5,1.688,1.679q.007,25.172,0,50.344c0,.113-.021.226-.039.4l-2.676.553V38.4H38.773V79.7h1.077q19.531,0,39.062-.014a1.234,1.234,0,0,1,1.38.806,17.36,17.36,0,0,0,1.137,1.973M51.177,29.99H88.338V27.345H51.177Zm37.159,2.874h-31.6V35.5h31.6Zm-34.479.02H51.2v2.6h2.659Z" transform="translate(-23.539 -5.222)" fill="#1d3a67"/>
    <path id="Path_3782" data-name="Path 3782" d="M0,12.381A12.418,12.418,0,1,1,12.338,24.828,12.386,12.386,0,0,1,0,12.381M11.059,5.451c-.2.041-.286.063-.37.075a4.119,4.119,0,0,0-3.77,4.517,4.169,4.169,0,0,0,4.306,3.743c.8.007,1.61-.012,2.414.006a1.4,1.4,0,0,1,1.53,1.4,1.425,1.425,0,0,1-1.491,1.359c-.689.024-1.381-.026-2.069.014-1.04.06-1.807-.249-2.008-1.342H6.966c-.093,2.11,1.218,3.461,4.109,4.2v2.585h2.715V19.363c.229-.042.393-.068.556-.1a4.135,4.135,0,0,0-.815-8.224c-.8-.007-1.61.019-2.414-.009a1.377,1.377,0,1,1-.017-2.75c.574-.022,1.151.023,1.724-.013,1.135-.073,2.162.016,2.409,1.317h2.648c-.113-2.313-1.41-3.631-4.1-4.151V2.8H11.059Z" transform="translate(0 0)" fill="#1d3a67"/>
    <path id="Path_3783" data-name="Path 3783" d="M167.827,178.778a11.038,11.038,0,1,1,10.978,11.07,11.016,11.016,0,0,1-10.978-11.07m3.308,2.317,4.975,4.982,10.413-10.411-1.856-1.981-8.7,8.806-3.054-3.236-1.774,1.84" transform="translate(-109.88 -109.848)" fill="#1d3a67"/>
    <path id="Path_3784" data-name="Path 3784" d="M113.233,32.337H78.2a15.217,15.217,0,0,0-.027-8.177h35.055Z" transform="translate(-51.185 -15.818)" fill="#1d3a67"/>
    <rect id="Rectangle_540" data-name="Rectangle 540" width="8.165" height="27.503" transform="translate(18.001 44.175)" fill="#1d3a67"/>
    <rect id="Rectangle_541" data-name="Rectangle 541" width="5.414" height="27.503" transform="translate(29.019 44.18)" fill="#1d3a67"/>
    <rect id="Rectangle_542" data-name="Rectangle 542" width="5.399" height="27.502" transform="translate(37.32 44.201)" fill="#1d3a67"/>
    <rect id="Rectangle_543" data-name="Rectangle 543" width="5.398" height="27.502" transform="translate(45.598 44.171)" fill="#1d3a67"/>
    <path id="Path_3785" data-name="Path 3785" d="M157.48,155.447h-1.492v-27.5h8.166c.022.227.062.446.062.665,0,3.848.015,7.7-.019,11.545a1.342,1.342,0,0,1-.505.942c-4.8,3.345-6.914,7.89-6.215,13.719a5.756,5.756,0,0,1,0,.631" transform="translate(-102.129 -83.769)" fill="#1d3a67"/>
    <rect id="Rectangle_544" data-name="Rectangle 544" width="13.71" height="5.393" transform="translate(29.04 35.914)" fill="#1d3a67"/>
    <rect id="Rectangle_545" data-name="Rectangle 545" width="8.199" height="5.394" transform="translate(17.968 35.914)" fill="#1d3a67"/>
    <rect id="Rectangle_546" data-name="Rectangle 546" width="8.165" height="5.411" transform="translate(53.879 35.921)" fill="#1d3a67"/>
    <rect id="Rectangle_547" data-name="Rectangle 547" width="5.441" height="5.403" transform="translate(45.566 35.909)" fill="#1d3a67"/>
  </g>
</svg>
