<svg id="Group_944" data-name="Group 944" xmlns="http://www.w3.org/2000/svg" xmlns:xlink="http://www.w3.org/1999/xlink" width="71.584" height="80" viewBox="0 0 71.584 80">
  <defs>
    <clipPath id="clip-path">
      <rect id="Rectangle_524" data-name="Rectangle 524" width="71.584" height="80" fill="#1d3a67"/>
    </clipPath>
  </defs>
  <g id="Group_899" data-name="Group 899" clip-path="url(#clip-path)">
    <path id="Path_3728" data-name="Path 3728" d="M85.949,167.807V145.652c.314-.02.6-.054.895-.054,7.452,0,14.9.007,22.357-.017.733,0,.991.164.987.95q-.045,10.174,0,20.349c0,.7-.176.958-.915.944-2.281-.043-4.562-.03-6.843,0a.879.879,0,0,1-.979-.69,5.817,5.817,0,0,0-11,.007.868.868,0,0,1-.983.683c-1.147-.033-2.295-.01-3.517-.01" transform="translate(-54.565 -92.423)" fill="#1d3a67"/>
    <path id="Path_3729" data-name="Path 3729" d="M6.469,126.353H43.621c0,1.385.028,2.717-.036,4.044-.008.16-.512.42-.79.424-2.312.034-4.624.016-6.937.021-2.092,0-2.978.9-2.978,3,0,6.937-.013,13.874.017,20.811,0,.776-.232,1-.979.96a21.753,21.753,0,0,0-2.919,0c-.855.065-1-.3-.993-1.055.031-4.259.015-8.519.015-12.779,0-2.312.009-4.625,0-6.937-.011-2.028-.931-2.949-2.968-2.954q-5.887-.016-11.774,0c-1.982.007-2.906.931-2.909,2.914q-.015,9.721-.006,19.442c0,1.505.139,1.338-1.392,1.349-.548,0-1.1,0-1.643-.005a.815.815,0,0,1-.9-.91q0-.228,0-.456,0-13.463,0-26.926c0-.3.027-.593.044-.95" transform="translate(-4.078 -80.216)" fill="#1d3a67"/>
    <path id="Path_3730" data-name="Path 3730" d="M41.741,98.695H.193C-.2,97.169-.06,96.837,1.213,96.222Q10.607,91.686,20,87.137a1.639,1.639,0,0,1,1.607.019q9.449,4.527,18.922,9c1.46.693,1.508.779,1.216,2.536" transform="translate(0 -55.192)" fill="#1d3a67"/>
    <path id="Path_3731" data-name="Path 3731" d="M143.275,74.746V68.69l13.658,8.894L143.27,86.478c0-1.8,0-3.343,0-4.883,0-1.19,0-1.191-1.184-1.191h-7.644c0-1.81-.022-3.506.035-5.2.005-.161.5-.435.771-.439,2.281-.035,4.563-.02,6.845-.02h1.183" transform="translate(-85.349 -43.608)" fill="#1d3a67"/>
    <path id="Path_3732" data-name="Path 3732" d="M33.023,13.641,41.916,0,50.8,13.641H47.177c-2.444,0-2.444,0-2.444,2.49,0,1.855-.018,3.711.009,5.565.008.584-.171.811-.778.795q-2.052-.053-4.105,0c-.617.016-.776-.233-.771-.806.022-2.372-.013-4.744.022-7.116.01-.7-.172-.969-.918-.945-1.638.053-3.278.016-5.168.016" transform="translate(-20.965)" fill="#1d3a67"/>
    <path id="Path_3733" data-name="Path 3733" d="M24.182,189.135v-3.869c0-1.733.018-3.466-.009-5.2-.009-.578.157-.8.772-.8,3.678.024,7.357.015,11.035.008.441,0,.768.033.764.612-.019,2.979-.014,5.958-.021,8.938a1.252,1.252,0,0,1-.1.306Z" transform="translate(-15.346 -113.812)" fill="#1d3a67"/>
    <path id="Path_3734" data-name="Path 3734" d="M171.477,182.342c-.095-.209-.2-.414-.283-.627a5.851,5.851,0,0,0-11.037-.009c-.1.259-.384.447-.583.668a2.455,2.455,0,0,1-.325-.808c-.021-4.073-.015-8.146-.012-12.219,0-.209.027-.418.051-.774h1.706c1.885,0,3.77-.029,5.653.024a1.7,1.7,0,0,1,1.127.523c1.237,1.46,2.419,2.967,3.595,4.478a1.787,1.787,0,0,1,.426.958c.035,2.431.021,4.863.013,7.295a2.068,2.068,0,0,1-.124.488l-.207,0" transform="translate(-101.09 -107.015)" fill="#1d3a67"/>
    <path id="Path_3735" data-name="Path 3735" d="M24.2,157.236v-8.552H36.691v8.552Z" transform="translate(-15.363 -94.393)" fill="#1d3a67"/>
    <path id="Path_3736" data-name="Path 3736" d="M104.285,204.119a3.309,3.309,0,1,1,6.617.145,3.309,3.309,0,1,1-6.617-.145" transform="translate(-66.206 -127.503)" fill="#1d3a67"/>
    <path id="Path_3737" data-name="Path 3737" d="M167.833,204.136a3.307,3.307,0,1,1,3.251,3.367,3.322,3.322,0,0,1-3.251-3.367" transform="translate(-106.55 -127.504)" fill="#1d3a67"/>
  </g>
</svg>
