<svg xmlns="http://www.w3.org/2000/svg" xmlns:xlink="http://www.w3.org/1999/xlink" width="79.223" height="80" viewBox="0 0 79.223 80">
  <defs>
    <clipPath id="clip-path">
      <rect id="Rectangle_523" data-name="Rectangle 523" width="79.223" height="80" fill="#1d3a67"/>
    </clipPath>
  </defs>
  <g id="Group_897" data-name="Group 897" clip-path="url(#clip-path)">
    <path id="Path_3719" data-name="Path 3719" d="M120.494,99.929c1.487,0,2.9-.018,4.316.021a.832.832,0,0,1,.545.46,3.715,3.715,0,0,0,3.673,2.374q8.513-.015,17.026,0a3.668,3.668,0,0,0,3.6-2.351c.092-.2.341-.474.524-.479,1.439-.039,2.879-.022,4.364-.022v41.677H120.494Zm11.56,21.7c0-.721.022-1.444-.006-2.164a1.3,1.3,0,0,0-1.337-1.4c-1.441-.048-2.886-.049-4.327,0a1.317,1.317,0,0,0-1.354,1.4c-.033,1.386-.031,2.775,0,4.162a1.366,1.366,0,0,0,1.4,1.459c1.414.046,2.831.045,4.245,0a1.35,1.35,0,0,0,1.384-1.456c.025-.665.005-1.332,0-2m-3.51,8.343c-.694,0-1.388-.019-2.082.005a1.362,1.362,0,0,0-1.433,1.409c-.033,1.415-.036,2.831,0,4.245a1.335,1.335,0,0,0,1.394,1.359q2.122.043,4.246,0a1.3,1.3,0,0,0,1.37-1.364q.049-2.122,0-4.245a1.32,1.32,0,0,0-1.42-1.4c-.693-.024-1.388-.005-2.082-.005m3.513-20.295c0-.694.019-1.388,0-2.081a1.363,1.363,0,0,0-1.449-1.476c-1.387-.031-2.776-.033-4.162,0a1.368,1.368,0,0,0-1.413,1.438q-.046,2.08,0,4.162a1.335,1.335,0,0,0,1.419,1.415q2.081.042,4.162,0a1.333,1.333,0,0,0,1.442-1.465c.023-.665,0-1.332.005-2m11.98,3.807c1.888,0,3.777.007,5.665,0,1.011-.005,1.6-.483,1.629-1.278.029-.819-.6-1.376-1.628-1.378q-5.623-.013-11.247,0c-1.053,0-1.632.518-1.609,1.376.021.818.576,1.274,1.608,1.28,1.861.01,3.721,0,5.582,0m.017,11.941c1.833,0,3.666,0,5.5,0,1.126,0,1.757-.477,1.776-1.315s-.6-1.336-1.726-1.346c-.667-.006-1.333,0-2,0-3.055,0-6.109,0-9.164,0-.952,0-1.488.4-1.582,1.129-.116.892.485,1.516,1.532,1.526,1.888.018,3.777.005,5.665.006m.075-16.978c1.861,0,3.722.005,5.583,0,.991,0,1.6-.5,1.617-1.293.022-.818-.616-1.366-1.637-1.367q-5.625-.009-11.249,0c-1.011,0-1.578.48-1.6,1.3-.019.866.549,1.353,1.615,1.358,1.889.007,3.778,0,5.667,0m-.063,21.2c-1.861,0-3.722,0-5.583,0-1.075,0-1.642.471-1.635,1.334.007.826.572,1.324,1.576,1.327q5.666.014,11.333,0c.961,0,1.58-.559,1.572-1.351s-.613-1.3-1.6-1.309c-1.889-.007-3.778,0-5.666,0m-.028,7.687c1.889,0,3.778,0,5.667,0,.993,0,1.6-.489,1.624-1.284.029-.819-.609-1.375-1.627-1.377q-5.625-.011-11.25,0c-1.049,0-1.628.518-1.6,1.379.023.823.583,1.278,1.607,1.281,1.861.006,3.722,0,5.583,0m.082-19.607c-1.888,0-3.776-.008-5.664,0-1.042.006-1.587.454-1.608,1.278-.023.854.546,1.37,1.611,1.373q5.622.02,11.245,0c1.041,0,1.655-.553,1.627-1.376-.028-.8-.613-1.27-1.629-1.276-1.86-.011-3.721,0-5.581,0" transform="translate(-80.209 -66.517)" fill="#1d3a67"/>
    <path id="Path_3720" data-name="Path 3720" d="M4.922,62.412H.015v-.932Q.015,37.436,0,13.393a1.078,1.078,0,0,1,.8-1.211Q16.078,6.17,31.342.12A1.85,1.85,0,0,1,32.581.1Q47.856,6.112,63.116,12.166a1.129,1.129,0,0,1,.867,1.256c-.04,3.338-.018,6.678-.018,10.017v1.146a4.291,4.291,0,0,1-1.053-.649,6.909,6.909,0,0,0-3.324-2.414.721.721,0,0,1-.571-.846c.031-1.056.01-2.113.01-3.239H4.922ZM31.972,13.366c2.223,0,4.445-.014,6.667.008.7.007,1.039-.24,1.012-.968-.026-.693-.02-1.389,0-2.083.017-.621-.249-.937-.881-.937q-6.793,0-13.585,0a.8.8,0,0,0-.9.933c.006.639,0,1.278,0,1.917.008.961.166,1.126,1.107,1.128,2.195,0,4.389,0,6.584,0" transform="translate(0 0)" fill="#1d3a67"/>
    <path id="Path_3721" data-name="Path 3721" d="M115.327,85.485v2.136h-3.489c-.807,0-1.615-.019-2.421.007a1.321,1.321,0,0,0-1.424,1.4c-.014.222-.007.445-.007.668q0,21.455,0,42.91c0,1.785.306,2.092,2.079,2.092h35.4c1.666,0,2.011-.34,2.011-1.987q0-21.58,0-43.16c0-1.546-.379-1.929-1.906-1.931-1.779,0-3.558,0-5.4,0V85.5c.207-.017.42-.05.633-.05,2,0,4.008-.008,6.012,0a2.563,2.563,0,0,1,2.837,2.84q.006,12.439,0,24.878,0,10.352,0,20.7c0,2.071-.935,3.008-3,3.008H108.835c-2.074,0-3.027-.931-3.028-2.985q0-22.707,0-45.414c0-2.1.946-3.03,3.073-3.031q2.8,0,5.594,0c.27,0,.541.024.853.039" transform="translate(-70.431 -56.876)" fill="#1d3a67"/>
    <path id="Path_3722" data-name="Path 3722" d="M27.387,147.567V152.8h4.369v-5.257h4.332c.021.261.062.524.062.787q.006,5.462,0,10.924c0,1.187-.227,1.405-1.417,1.406q-5.17,0-10.341,0c-1.147,0-1.37-.221-1.371-1.356,0-3.89,0-7.78,0-11.739Z" transform="translate(-15.325 -98.217)" fill="#1d3a67"/>
    <path id="Path_3723" data-name="Path 3723" d="M23.058,103.257h4.328v5.283h4.377v-5.264H36.1c.018.272.047.516.047.759q0,5.466,0,10.931c0,1.2-.2,1.386-1.42,1.386q-5.216,0-10.431,0c-1.059,0-1.275-.213-1.276-1.266q-.006-5.549,0-11.1c0-.22.021-.44.035-.731" transform="translate(-15.324 -68.735)" fill="#1d3a67"/>
    <path id="Path_3724" data-name="Path 3724" d="M23.022,59h4.347v5.277h4.375V59.035H36.1c.017.248.052.513.052.778q.006,5.424,0,10.847c0,1.232-.19,1.426-1.39,1.427q-5.174.006-10.348,0c-1.212,0-1.39-.186-1.391-1.412q0-5.424,0-10.847Z" transform="translate(-15.325 -39.272)" fill="#1d3a67"/>
    <path id="Path_3725" data-name="Path 3725" d="M152.056,80.936q-4.092,0-8.183,0c-1.235,0-1.483-.242-1.487-1.444,0-1.308-.013-2.616,0-3.924.01-.822.349-1.159,1.174-1.171,1.224-.018,2.449-.019,3.673,0a.751.751,0,0,0,.864-.537,4.257,4.257,0,0,1,7.947-.036.754.754,0,0,0,.843.576c1.224-.032,2.449-.021,3.674-.006.862.011,1.209.358,1.219,1.223.014,1.336.011,2.672,0,4.008-.007.982-.322,1.3-1.3,1.308-2.811.008-5.622,0-8.433,0m1.149-6.268a1.128,1.128,0,0,0-2.25-.118,1.127,1.127,0,1,0,2.25.118" transform="translate(-94.779 -47.337)" fill="#1d3a67"/>
    <path id="Path_3726" data-name="Path 3726" d="M67.338,147.524h4.29v5.25H76v-5.229h1.43v13.034a6.2,6.2,0,0,1-.643.067q-4.129.007-8.258,0c-.948,0-1.255-.261-1.258-1.144-.012-3.864,0-7.729,0-11.593a2.759,2.759,0,0,1,.064-.385" transform="translate(-44.778 -98.203)" fill="#1d3a67"/>
    <path id="Path_3727" data-name="Path 3727" d="M67.369,103.278h4.276v5.257h4.372v-5.251h1.426v13.082H73.82c-1.808,0-3.616-.013-5.424.006-.725.007-1.114-.306-1.115-1.028q-.008-5.882.005-11.765a1.445,1.445,0,0,1,.083-.3" transform="translate(-44.786 -68.749)" fill="#1d3a67"/>
  </g>
</svg>
