<svg id="Group_947" data-name="Group 947" xmlns="http://www.w3.org/2000/svg" xmlns:xlink="http://www.w3.org/1999/xlink" width="82.057" height="80" viewBox="0 0 82.057 80">
  <defs>
    <clipPath id="clip-path">
      <rect id="Rectangle_535" data-name="Rectangle 535" width="82.057" height="80" fill="#1d3a67"/>
    </clipPath>
  </defs>
  <g id="Group_905" data-name="Group 905" clip-path="url(#clip-path)">
    <path id="Path_3753" data-name="Path 3753" d="M117.339,102.4a7.331,7.331,0,0,0-2.01,5.461q.038,19.313.013,38.626c0,1.189,0,1.191-1.21,1.191H83.23c-1.2,0-1.2,0-1.2-1.212q0-19.434,0-38.868c0-3.286,1.911-5.2,5.193-5.2q14.566,0,29.131,0ZM99.3,130.359q-5.95,0-11.9,0c-.267,0-.59-.071-.789.051-.285.174-.669.5-.664.753.006.308.331.657.6.895.144.127.461.073.7.073q12.019,0,24.039,0c.264,0,.608.035.773-.109a1.3,1.3,0,0,0,.505-.869c-.024-.272-.377-.576-.659-.745-.2-.121-.522-.048-.79-.048q-5.909,0-11.818,0m-.072,12.48h11.82c.268,0,.59.079.79-.04.3-.18.7-.489.722-.769s-.306-.672-.577-.9c-.166-.138-.514-.073-.78-.074q-11.941,0-23.882,0c-.24,0-.561-.072-.7.052-.29.251-.651.607-.663.932-.009.251.433.58.742.76.2.118.523.038.791.038h11.74m4.159-14.031h5.146c1.072,0,2.144.009,3.216-.011a.79.79,0,0,0,.859-.855.827.827,0,0,0-.827-.9,5.545,5.545,0,0,0-.643-.01H97.795c-.884,0-1.769-.013-2.653.009a.823.823,0,0,0-.9.907.808.808,0,0,0,.867.853c.214.013.429.008.643.008h7.638m.04,10.752q3.86,0,7.719,0c.241,0,.554.078.707-.042a1.867,1.867,0,0,0,.724-.888c.106-.473-.247-.789-.755-.834-.213-.019-.428-.017-.643-.017q-7.76,0-15.519,0c-.241,0-.537-.068-.71.044-.28.181-.666.486-.667.74a1.467,1.467,0,0,0,.566.912c.163.14.512.083.778.083q3.9.007,7.8,0m.955-19.946c-2.36,0-4.72.007-7.08,0-.646,0-1.215.078-1.273.873-.044.6.395.907,1.237.907q7.04,0,14.08,0c.636,0,1.22-.057,1.263-.874.032-.62-.358-.9-1.227-.9q-3.5-.007-7,0m2.338-1.515c1.552,0,3.1,0,4.655,0,.631,0,1.23-.092,1.224-.914-.007-.785-.581-.853-1.185-.845-.214,0-.428,0-.642,0-2.889,0-5.779-.006-8.668,0-.861,0-1.393.56-1.047,1.145a1.512,1.512,0,0,0,1.09.583c1.522.065,3.049.027,4.574.027" transform="translate(-55.592 -69.399)" fill="#1d3a67"/>
    <path id="Path_3754" data-name="Path 3754" d="M151.43,59.074v-18h33.1c.024.285.068.569.068.853q.038,15.531.069,31.063c.006,3.058,0,6.116.025,9.173a4.8,4.8,0,0,1-4.539,4.9,4.693,4.693,0,0,1-4.817-4.758c-.038-5.419.008-10.838-.063-16.256a8.7,8.7,0,0,0-.638-3.268,6.15,6.15,0,0,0-5.766-3.7c-1.764-.1-3.538-.017-5.308-.017H151.43m23.014-8.981h3.619c1.233,0,2.466,0,3.7,0,.6,0,1.014-.259,1.012-.881s-.422-.884-1.013-.9c-.188,0-.375,0-.563,0H167.285c-.526,0-.966.139-1.071.741-.113.648.267,1.033,1.072,1.036,2.386.012,4.771,0,7.157.005m2.572-5.062c-1.556,0-3.112.009-4.668,0-.622-.005-1.15.1-1.22.845-.057.6.38.939,1.213.94,3.085.006,6.17,0,9.255,0,.635,0,1.173-.17,1.176-.9s-.529-.9-1.169-.894c-1.529.013-3.058,0-4.587,0" transform="translate(-102.63 -27.84)" fill="#1d3a67"/>
    <path id="Path_3755" data-name="Path 3755" d="M.063,42.223c2.167,1.22,4.245,2.375,6.3,3.572a.993.993,0,0,1,.283.742c.022,2.146.03,4.292,0,6.437A1.468,1.468,0,0,0,7.5,54.452c1.839.993,3.644,2.046,5.469,3.065,1.023.572,1.661.2,1.666-.975.01-1.983,0-3.966,0-6.1.645.355,1.2.656,1.748.964,1.449.812,2.909,1.606,4.334,2.459a1.187,1.187,0,0,1,.53.833q.042,11.828.019,23.656c0,.08-.017.159-.04.349-.261-.137-.488-.247-.705-.372Q10.573,72.591.616,66.847c-.361-.208-.618-.388-.616-.9Q.033,54.279.018,42.612c0-.08.018-.159.045-.389" transform="translate(0 -28.616)" fill="#1d3a67"/>
    <path id="Path_3756" data-name="Path 3756" d="M15.569,203.946A10.4,10.4,0,0,1,5.021,193.3a10.553,10.553,0,0,1,21.105.009,10.4,10.4,0,0,1-10.557,10.641m-1.942-8.029-2.706-2.755a.841.841,0,0,0-1.334-.067.826.826,0,0,0,.062,1.277q1.615,1.624,3.236,3.242a.944.944,0,0,0,1.528-.041c.729-.748,1.476-1.479,2.214-2.218q2.416-2.416,4.83-4.831c.422-.422.544-.887.092-1.333a.86.86,0,0,0-1.341.09c-.4.4-.8.793-1.194,1.193-1.77,1.787-3.539,3.575-5.389,5.443" transform="translate(-3.403 -123.946)" fill="#1d3a67"/>
    <path id="Path_3757" data-name="Path 3757" d="M92.369,42.419V59.982h-.9q-5.753,0-11.506,0a6.48,6.48,0,0,0-6.847,6.871c0,3.138-.071,6.279.034,9.413.042,1.249-.327,1.976-1.579,2.283a2.986,2.986,0,0,1-.068-.466Q71.5,66.5,71.524,54.911a1.176,1.176,0,0,1,.463-.874Q81.945,48.3,91.936,42.616c.11-.063.231-.106.433-.2" transform="translate(-48.461 -28.749)" fill="#1d3a67"/>
    <path id="Path_3758" data-name="Path 3758" d="M202.3,128.6H191.009c-.017-.277-.045-.511-.045-.745q0-10.331,0-20.664a4.519,4.519,0,0,1,2.746-4.358,4.38,4.38,0,0,1,4.956.65,4.651,4.651,0,0,1,1.664,3.84c-.013,3.511,0,7.022.011,10.533,0,1.742.05,3.485,0,5.226A7.039,7.039,0,0,0,202.3,128.6" transform="translate(-129.422 -69.361)" fill="#1d3a67"/>
    <path id="Path_3759" data-name="Path 3759" d="M30.495,3.673,25.008,6.811Q17.515,11.1,10.03,15.4a1.131,1.131,0,0,1-1.3,0c-1.94-1.126-3.9-2.212-5.956-3.368,2.186-1.266,4.263-2.47,6.342-3.671C13.8,5.651,18.485,2.958,23.153.229a1.21,1.21,0,0,1,1.434.014c1.9,1.143,3.838,2.234,5.908,3.43" transform="translate(-1.879 0)" fill="#1d3a67"/>
    <path id="Path_3760" data-name="Path 3760" d="M48.394,38.068c2.949-1.686,5.735-3.281,8.522-4.873,3.952-2.256,7.911-4.5,11.853-6.777a1.119,1.119,0,0,1,1.308.015c1.882,1.126,3.793,2.2,5.779,3.35-.262.171-.45.307-.651.422q-9.831,5.623-19.658,11.253a1,1,0,0,1-1.157,0c-1.939-1.126-3.9-2.212-6-3.392" transform="translate(-32.799 -17.767)" fill="#1d3a67"/>
    <path id="Path_3761" data-name="Path 3761" d="M29,26.905c.6-.355,1.1-.656,1.6-.944q9.416-5.4,18.829-10.8a1.044,1.044,0,0,1,1.232-.009c1.2.742,2.434,1.436,3.747,2.2-.274.184-.455.324-.651.437q-9.87,5.657-19.736,11.319a1,1,0,0,1-1.162,0c-1.235-.737-2.494-1.432-3.856-2.207" transform="translate(-19.657 -10.135)" fill="#1d3a67"/>
    <path id="Path_3762" data-name="Path 3762" d="M30.546,65.3c-1.466-.828-2.775-1.554-4.065-2.313a.78.78,0,0,1-.34-.553c-.025-1.815-.015-3.631-.015-5.621,1.484.84,2.849,1.606,4.2,2.392a.53.53,0,0,1,.208.394c.014,1.842.009,3.683.009,5.7" transform="translate(-17.705 -38.502)" fill="#1d3a67"/>
  </g>
</svg>
