<svg xmlns="http://www.w3.org/2000/svg" xmlns:xlink="http://www.w3.org/1999/xlink" width="77.192" height="80" viewBox="0 0 77.192 80">
  <defs>
    <clipPath id="clip-path">
      <rect id="Rectangle_534" data-name="Rectangle 534" width="77.192" height="80" fill="#1d3a67"/>
    </clipPath>
  </defs>
  <g id="Group_903" data-name="Group 903" clip-path="url(#clip-path)">
    <path id="Path_3749" data-name="Path 3749" d="M10.874,33.51a41.807,41.807,0,0,0,.221,4.369,6.813,6.813,0,0,0,6.62,5.763q12.769.07,25.539,0a6.931,6.931,0,0,0,6.725-6.715c.038-1.111.006-2.224.006-3.412h2.562c1.952,0,3.9-.007,5.858,0a2.355,2.355,0,0,1,2.528,2.542c.007,5.181.013,10.362-.02,15.542a1.79,1.79,0,0,1-.511,1.119C53.772,59.377,47.105,66,40.5,72.685a11.322,11.322,0,0,0-2.107,3.047c-1.834,3.848-3.591,7.733-5.306,11.636a7.027,7.027,0,0,0,9.488,9.177C46.5,94.76,50.442,93,54.342,91.159a10.52,10.52,0,0,0,2.525-1.786c1.355-1.241,2.615-2.586,4.028-4,.018.4.039.65.039.9q0,6.99,0,13.98c0,1.887-.89,2.787-2.756,2.787H2.727A2.412,2.412,0,0,1,0,100.3Q0,68.276,0,36.254A2.41,2.41,0,0,1,2.72,33.511c2.7,0,5.409,0,8.154,0M21.2,56.365c-.142-.034-.175-.032-.19-.047-.707-.691-1.4-1.4-2.12-2.072A2.338,2.338,0,1,0,15.6,57.571c1.252,1.287,2.519,2.561,3.81,3.808a2.284,2.284,0,0,0,3.356,0q3.92-3.863,7.783-7.783a2.2,2.2,0,0,0,.607-2.225,2.325,2.325,0,0,0-4.014-.97c-2,1.972-3.97,3.975-5.948,5.959m-.159,30.624c-.763-.81-1.43-1.572-2.154-2.274A2.336,2.336,0,1,0,15.6,88.036c1.252,1.287,2.519,2.561,3.81,3.808a2.283,2.283,0,0,0,3.356.005q3.92-3.863,7.784-7.783a2.2,2.2,0,0,0,.607-2.225,2.325,2.325,0,0,0-4.014-.97c-2,1.972-3.971,3.975-6.108,6.119m0-15.221c-.777-.822-1.463-1.6-2.207-2.322a2.334,2.334,0,0,0-3.3-.005,2.3,2.3,0,0,0,.009,3.3q1.928,1.991,3.921,3.917a2.267,2.267,0,0,0,3.239.014q3.975-3.918,7.894-7.895a2.143,2.143,0,0,0,.561-2.163A2.321,2.321,0,0,0,27.2,65.592c-2.02,1.99-4.007,4.014-6.159,6.175M11.715,58.954A2.338,2.338,0,1,0,9.4,61.316a2.365,2.365,0,0,0,2.314-2.362m0,30.454a2.338,2.338,0,1,0-2.3,2.373,2.366,2.366,0,0,0,2.3-2.373m0-15.175a2.339,2.339,0,1,0-2.361,2.3,2.338,2.338,0,0,0,2.361-2.3" transform="translate(0 -23.038)" fill="#1d3a67"/>
    <path id="Path_3750" data-name="Path 3750" d="M154.287,126.416l-9.9-9.9c.135-.144.317-.352.512-.547q10.322-10.325,20.646-20.647c1.307-1.306,2.563-1.314,3.865-.017q3.07,3.058,6.127,6.128a2.387,2.387,0,0,1,.031,3.754q-10.427,10.439-20.866,20.868c-.144.144-.3.27-.411.363" transform="translate(-99.269 -64.859)" fill="#1d3a67"/>
    <path id="Path_3751" data-name="Path 3751" d="M56.24,5c0-.926-.013-1.754,0-2.583A2.332,2.332,0,0,1,58.661.01Q64.831-.01,71,.01a2.332,2.332,0,0,1,2.426,2.405c.017.829,0,1.659,0,2.589,1.21,0,2.371,0,3.532,0a2.412,2.412,0,0,1,2.717,2.746c0,1.874.007,3.749,0,5.623a2.366,2.366,0,0,1-2.579,2.57q-12.261.007-24.521,0a2.366,2.366,0,0,1-2.584-2.564q-.012-2.928,0-5.857a2.356,2.356,0,0,1,2.553-2.516C53.74,5,54.934,5,56.24,5" transform="translate(-34.367 0)" fill="#1d3a67"/>
    <path id="Path_3752" data-name="Path 3752" d="M123.859,178.3l8.824,8.825-7.875,3.581c-.9.408-1.787.835-2.7,1.214a2.22,2.22,0,0,1-2.585-.5,2.193,2.193,0,0,1-.479-2.589c1.556-3.483,3.146-6.951,4.726-10.423a.249.249,0,0,1,.086-.1" transform="translate(-81.693 -122.584)" fill="#1d3a67"/>
  </g>
</svg>
