<svg id="Group_943" data-name="Group 943" xmlns="http://www.w3.org/2000/svg" xmlns:xlink="http://www.w3.org/1999/xlink" width="80.003" height="80" viewBox="0 0 80.003 80">
  <defs>
    <clipPath id="clip-path">
      <rect id="Rectangle_549" data-name="Rectangle 549" width="80.003" height="80" fill="#1d3a67"/>
    </clipPath>
  </defs>
  <g id="Group_913" data-name="Group 913" clip-path="url(#clip-path)">
    <path id="Path_3786" data-name="Path 3786" d="M22.178,38.061h6.964c.081.242.163.479.241.717A5.809,5.809,0,0,0,34.921,42.9q9.823.035,19.646,0a5.786,5.786,0,0,0,5.484-4.068c.08-.243.159-.486.246-.754h6.988V54.736H66.4c-2.231,0-4.463-.019-6.694.006A5.651,5.651,0,0,0,54.663,57.6a1.162,1.162,0,0,1-1.176.62q-11.648-.021-23.3-.01c-.232,0-.464-.006-.7,0a.994.994,0,0,0-1.088,1c-.018.7.423,1.038,1.1,1.073.231.011.463,0,.7,0H53.716V66.56H30.164c-.289,0-.657-.1-.852.037-.36.255-.851.651-.854.993s.48.747.835,1.009c.191.14.561.041.851.041H53.725v6.265h-23.5c-.261,0-.523-.015-.782.007a1.034,1.034,0,1,0,.035,2.068c.26.016.522.006.782.006H53.728l1.32,2.788c-2.029,0-4.043-.011-6.057.006a17.2,17.2,0,0,0-2.6.131,5.4,5.4,0,0,0-3.919,2.748,1.077,1.077,0,0,1-1.1.6c-3.767-.021-7.533-.011-11.3-.011a5.929,5.929,0,0,0-.695.011.985.985,0,0,0-.982,1.016.967.967,0,0,0,.957,1.035,13.5,13.5,0,0,0,1.39.018h10.8V97.1H22.178ZM44.722,49.867H43.245q-6.776,0-13.552,0c-.834,0-1.346.418-1.293,1.062.062.749.554,1.028,1.257,1.016.145,0,.289,0,.434,0q14.638,0,29.276,0c.289,0,.644.083.852-.052.33-.215.749-.561.783-.889a1.492,1.492,0,0,0-.594-1.013c-.2-.168-.6-.121-.918-.122q-7.384-.009-14.768,0" transform="translate(-14.465 -24.825)" fill="#1d3a67"/>
    <path id="Path_3787" data-name="Path 3787" d="M27.154,84.846c-.116,2.016-.013,3.856,1.356,5.486a7.129,7.129,0,0,1-.721.08q-10.517.006-21.033,0a6.576,6.576,0,0,1-6.75-6.769Q-.007,53.223.005,22.8A6.587,6.587,0,0,1,6.8,15.99c2.572-.012,5.144,0,7.766,0v5.57h-.884c-2.231,0-4.462,0-6.692,0-1.066,0-1.413.34-1.413,1.394q0,30.245,0,60.491c0,1.081.347,1.4,1.495,1.4q9.517,0,19.034,0Z" transform="translate(0 -10.425)" fill="#1d3a67"/>
    <path id="Path_3788" data-name="Path 3788" d="M125.951,91.983c0,2.634,0,5.125,0,7.616,0,1.879.948,2.808,2.845,2.815q2.39.008,4.78,0a2.49,2.49,0,0,0,2.8-2.775c.008-2.515,0-5.031,0-7.592a29.348,29.348,0,0,1,3.84.032,3.645,3.645,0,0,1,3.109,3.649q.038,7.735,0,15.47a3.733,3.733,0,0,1-3.712,3.729q-8.43.048-16.86,0a3.753,3.753,0,0,1-3.753-3.78q-.038-7.691,0-15.383a3.783,3.783,0,0,1,3.759-3.779c1.035-.025,2.071,0,3.193,0" transform="translate(-77.602 -59.989)" fill="#1d3a67"/>
    <path id="Path_3789" data-name="Path 3789" d="M101.377,164.013a34.826,34.826,0,0,1,3.7.025,3.683,3.683,0,0,1,3.241,3.632q.047,7.778,0,15.556a3.734,3.734,0,0,1-3.745,3.7q-8.43.041-16.86,0A3.734,3.734,0,0,1,84,183.194q-.045-7.735,0-15.47A3.756,3.756,0,0,1,87.532,164c1.094-.06,2.195-.011,3.418-.011v.951c0,2.259-.009,4.519,0,6.779a2.46,2.46,0,0,0,2.7,2.691q2.52.017,5.041,0a2.463,2.463,0,0,0,2.676-2.721c.011-2.26,0-4.519,0-6.779v-.892" transform="translate(-54.774 -106.943)" fill="#1d3a67"/>
    <path id="Path_3790" data-name="Path 3790" d="M166.951,163.983c0,2.661-.012,5.232,0,7.8a2.445,2.445,0,0,0,2.6,2.628c.058,0,.116,0,.174,0,1.68,0,3.361.014,5.041,0a2.433,2.433,0,0,0,2.608-2.611c.017-2.572,0-5.144,0-7.77a31.687,31.687,0,0,1,3.769.028,3.681,3.681,0,0,1,3.181,3.683q.037,7.735,0,15.47a3.734,3.734,0,0,1-3.725,3.717q-8.43.045-16.86,0a3.751,3.751,0,0,1-3.74-3.792q-.035-7.691,0-15.383a3.782,3.782,0,0,1,3.771-3.766c1.013-.023,2.026,0,3.18,0" transform="translate(-104.344 -106.95)" fill="#1d3a67"/>
    <path id="Path_3791" data-name="Path 3791" d="M55.016,5.482C55.945,2.092,58.3.07,61.371,0c3.268-.072,5.542,1.768,6.8,5.56,1.788,0,3.606,0,5.425,0,1.238,0,1.535.3,1.537,1.531,0,1.651.013,3.3,0,4.953A3.809,3.809,0,0,1,71.182,16q-9.6.019-19.2,0A3.814,3.814,0,0,1,48,12q-.016-2.519,0-5.039c0-1.058.341-1.388,1.41-1.394,1.8-.01,3.591-.009,5.386-.015a1,1,0,0,0,.219-.067" transform="translate(-31.302 0)" fill="#1d3a67"/>
    <path id="Path_3792" data-name="Path 3792" d="M146.643,40.291h-5.489v-.969q0-8.04,0-16.08c0-1.449-.248-1.691-1.729-1.691h-7.256v-5.57c1.98,0,3.941-.017,5.9.007a20.821,20.821,0,0,1,3.374.166,6.383,6.383,0,0,1,5.251,6.092c.064,5.939.019,11.878.016,17.817a1.081,1.081,0,0,1-.068.228" transform="translate(-86.205 -10.42)" fill="#1d3a67"/>
    <path id="Path_3793" data-name="Path 3793" d="M145.005,92.114h6.262c0,2.611.013,5.182-.025,7.752a.8.8,0,0,1-.568.532c-1.679.043-3.362.047-5.041,0a.857.857,0,0,1-.6-.583c-.042-2.544-.027-5.089-.027-7.7" transform="translate(-94.575 -60.08)" fill="#1d3a67"/>
    <path id="Path_3794" data-name="Path 3794" d="M116.262,164.177c0,2.579-.006,5.1.006,7.616,0,.475-.168.682-.659.677q-2.477-.022-4.955,0c-.488,0-.664-.2-.661-.675.012-2.519.006-5.037.006-7.619Z" transform="translate(-71.74 -107.081)" fill="#1d3a67"/>
    <path id="Path_3795" data-name="Path 3795" d="M192.262,164.175c0,2.581-.006,5.1.006,7.618,0,.476-.171.681-.66.676q-2.478-.022-4.956,0c-.489,0-.662-.2-.66-.676.012-2.518.006-5.037.006-7.618Z" transform="translate(-121.309 -107.08)" fill="#1d3a67"/>
  </g>
</svg>
