<svg id="Group_948" data-name="Group 948" xmlns="http://www.w3.org/2000/svg" xmlns:xlink="http://www.w3.org/1999/xlink" width="81.061" height="80" viewBox="0 0 81.061 80">
  <defs>
    <clipPath id="clip-path">
      <rect id="Rectangle_537" data-name="Rectangle 537" width="81.061" height="80" fill="#1d3a67"/>
    </clipPath>
  </defs>
  <g id="Group_907" data-name="Group 907" clip-path="url(#clip-path)">
    <path id="Path_3763" data-name="Path 3763" d="M66.29,46.084h12.1q7.3,0,14.6,0a6.33,6.33,0,0,0,.942-.033,1.336,1.336,0,0,0,.145-2.61,5.122,5.122,0,0,0-1.192-.091q-15.411-.007-30.822-.023a3.619,3.619,0,0,1-1.682-.452c-2.869-1.6-5.7-3.282-8.567-4.881-.518-.288-.455-.654-.455-1.065q0-12.836,0-25.671,0-4.765,0-9.53C51.361.4,51.767,0,53.107,0Q76.374,0,99.641,0c1.32,0,1.738.419,1.738,1.748q0,30.65,0,61.3c0,1.363-.416,1.777-1.8,1.778q-13.737,0-27.474.016c-.7,0-.927-.18-.921-.906.032-4.436-.013-8.872.037-13.307A2.2,2.2,0,0,0,69.9,48.383c-1.259-.645-2.458-1.406-3.682-2.117l.076-.182m3.547-26.19q4.764,0,9.528,0c1.126,0,1.38-.246,1.382-1.342q.007-4.635,0-9.27c0-1.11-.249-1.355-1.365-1.355q-9.528,0-19.055,0c-1.1,0-1.338.248-1.339,1.38q-.005,4.592,0,9.184c0,1.165.238,1.4,1.407,1.4q4.721,0,9.442,0M76.38,33.842q8.366,0,16.733,0a3.824,3.824,0,0,0,.855-.034,1.359,1.359,0,0,0,.081-2.649A3.143,3.143,0,0,0,93.2,31.1q-16.818,0-33.637,0a3.369,3.369,0,0,0-.853.045,1.357,1.357,0,0,0,.084,2.667,4.732,4.732,0,0,0,.856.027H76.38m-.018,3.4H59.716a8.487,8.487,0,0,0-.857.018,1.34,1.34,0,0,0-.213,2.631,4.389,4.389,0,0,0,1.1.087q16.6.006,33.206,0a5.074,5.074,0,0,0,1.023-.057,1.305,1.305,0,0,0,1.077-1.512c-.094-.782-.642-1.166-1.705-1.167q-8.495-.005-16.989,0m.005-9.551q8.323,0,16.645,0a6.1,6.1,0,0,0,.942-.03,1.34,1.34,0,0,0,.264-2.565,3.329,3.329,0,0,0-1.1-.138q-16.774-.01-33.547,0a3.44,3.44,0,0,0-1.014.117,1.235,1.235,0,0,0-.916,1.38,1.248,1.248,0,0,0,1.135,1.209,6.126,6.126,0,0,0,.856.027H76.367M87.129,52.223c2.059,0,4.118,0,6.176,0,1.163,0,1.774-.49,1.761-1.388s-.621-1.351-1.8-1.351q-6.134,0-12.267,0c-1.158,0-1.782.5-1.768,1.394.013.865.613,1.34,1.725,1.344,2.059.006,4.118,0,6.176,0m.087,3.407c-2.116,0-4.232-.005-6.347,0-1.043,0-1.63.49-1.642,1.331s.585,1.4,1.6,1.4q6.347.018,12.694,0a1.37,1.37,0,0,0,1.549-1.44c-.03-.814-.595-1.286-1.589-1.29-2.087-.009-4.174,0-6.261,0m3.354-46.2c-1,0-2-.01-3,0-.962.013-1.554.523-1.57,1.324a1.39,1.39,0,0,0,1.514,1.4q3.042.037,6.085,0a1.345,1.345,0,0,0,1.467-1.429,1.331,1.331,0,0,0-1.5-1.294c-1-.017-2,0-3,0m-.061,8.966c1,0,2,.01,3,0,.974-.012,1.541-.507,1.558-1.327a1.349,1.349,0,0,0-1.491-1.4q-3.043-.03-6.086,0a1.37,1.37,0,1,0,.019,2.728c1,.017,2,0,3,0" transform="translate(-33.717)" fill="#1d3a67"/>
    <path id="Path_3764" data-name="Path 3764" d="M54.542,180.234V167.574c0-1.716-.022-3.433.021-5.148a1.189,1.189,0,0,1,.455-.87q7.549-4.41,15.133-8.759a3.116,3.116,0,0,1,.323-.131c.026.268.069.5.069.735,0,5.634.012,11.269-.019,16.9a1.365,1.365,0,0,1-.5,1.021c-4.979,2.917-9.983,5.792-14.983,8.675-.118.068-.248.115-.5.233" transform="translate(-35.806 -100.234)" fill="#1d3a67"/>
    <rect id="Rectangle_536" data-name="Rectangle 536" width="8.716" height="27.533" transform="translate(72.287 18.807)" fill="#1d3a67"/>
    <path id="Path_3765" data-name="Path 3765" d="M12.079,159.312c1.326.76,2.489,1.411,3.631,2.1a.749.749,0,0,1,.273.558q.006,8.922-.022,17.844c0,.023-.026.045-.08.135-.238-.125-.486-.245-.724-.382Q7.916,175.391.687,171.2c-.292-.17-.655-.552-.657-.838C-.008,164.414,0,158.465,0,152.329c1.316.763,2.543,1.449,3.732,2.2.164.1.186.511.188.779.014,2.2.032,4.405,0,6.607a1.819,1.819,0,0,0,1.024,1.806c1.649.914,3.267,1.884,4.908,2.813,1.194.676,2.205.112,2.223-1.255.026-1.913.007-3.826.007-5.962" transform="translate(0 -100.012)" fill="#1d3a67"/>
    <path id="Path_3766" data-name="Path 3766" d="M4.02,128c2.091-1.209,4.062-2.35,6.033-3.489,3.115-1.8,6.236-3.59,9.341-5.406a1.025,1.025,0,0,1,1.233-.015c1.03.653,2.1,1.236,3.259,1.9-.249.17-.395.285-.554.377q-7.378,4.266-14.753,8.54a1.094,1.094,0,0,1-1.31,0c-1.028-.651-2.1-1.238-3.25-1.911" transform="translate(-2.639 -78.059)" fill="#1d3a67"/>
    <path id="Path_3767" data-name="Path 3767" d="M39.205,148.33c3.473-2.008,6.809-3.937,10.145-5.864,1.756-1.014,3.522-2.012,5.267-3.044a.967.967,0,0,1,1.162-.031c1.039.652,2.117,1.242,3.3,1.927-.282.188-.491.343-.715.472-4.822,2.787-9.651,5.561-14.46,8.369a1.278,1.278,0,0,1-1.548.012c-.979-.636-2.015-1.184-3.153-1.841" transform="translate(-25.74 -91.399)" fill="#1d3a67"/>
    <path id="Path_3768" data-name="Path 3768" d="M219.276,31.352h-8.7a42.194,42.194,0,0,1,.051-5.287,3.342,3.342,0,0,1,3.3-2.632c.6-.026,1.2-.027,1.8,0a3.667,3.667,0,0,1,3.515,3.164,6.943,6.943,0,0,1,.032.942c0,1.251,0,2.5,0,3.817" transform="translate(-138.216 -15.371)" fill="#1d3a67"/>
    <path id="Path_3769" data-name="Path 3769" d="M42.143,131.542l-6.4,3.7c-2.993,1.728-5.993,3.446-8.972,5.2a1.008,1.008,0,0,1-1.234-.005c-.615-.411-1.277-.752-2.041-1.193.293-.186.51-.334.736-.465q7.308-4.223,14.612-8.455a1.04,1.04,0,0,1,1.246,0c.638.415,1.308.781,2.057,1.223" transform="translate(-15.423 -85.424)" fill="#1d3a67"/>
    <path id="Path_3770" data-name="Path 3770" d="M210.7,143.151h8.668l-1.618,2.81c-.728,1.263-1.445,2.533-2.189,3.786-.387.653-.781.682-1.14.068-1.255-2.146-2.483-4.308-3.718-6.466-.023-.041,0-.106,0-.2" transform="translate(-138.329 -93.986)" fill="#1d3a67"/>
    <path id="Path_3771" data-name="Path 3771" d="M19.419,163.546c.882.511,1.6.9,2.294,1.347a.857.857,0,0,1,.36.594c.03,1.594.016,3.188.016,4.956-.9-.517-1.688-.949-2.449-1.422a.682.682,0,0,1-.211-.507c-.016-1.594-.009-3.189-.009-4.968" transform="translate(-12.749 -107.376)" fill="#1d3a67"/>
  </g>
</svg>
