<svg id="Group_941" data-name="Group 941" xmlns="http://www.w3.org/2000/svg" xmlns:xlink="http://www.w3.org/1999/xlink" width="63.229" height="80" viewBox="0 0 63.229 80">
  <defs>
    <clipPath id="clip-path">
      <rect id="Rectangle_539" data-name="Rectangle 539" width="63.229" height="80" fill="#1d3a67"/>
    </clipPath>
  </defs>
  <g id="Group_909" data-name="Group 909" clip-path="url(#clip-path)">
    <path id="Path_3772" data-name="Path 3772" d="M43.947,68.6c-.4.024-.7.058-1.01.058q-20,0-40.007,0A2.6,2.6,0,0,1,.019,65.717Q.014,38.972,0,12.227c0-.807.277-.977,1.018-.976a57.853,57.853,0,0,0,6.327-.16,4.587,4.587,0,0,0,3.94-4.6c.024-1.88.03-3.76-.006-5.639C11.266.188,11.493,0,12.141,0Q31.4.023,50.65.016a2.466,2.466,0,0,1,2.636,2.653q.007,28.9,0,57.807c0,.172-.014.345-.029.669-.893-.251-1.723-.476-2.547-.719-2.5-.737-4.992-1.51-7.506-2.2a1.842,1.842,0,0,0-1.516.159,1.957,1.957,0,0,0-.235,1.584c.685,2.545,1.466,5.064,2.211,7.593.089.3.165.607.279,1.032M26.714,27.728q-8.9,0-17.792,0A2.881,2.881,0,0,0,5.7,30.915q-.007,10.614,0,21.227a2.888,2.888,0,0,0,3.192,3.225q17.792,0,35.584,0a2.807,2.807,0,0,0,3.134-3.151q0-10.658,0-21.315c0-2.132-1.045-3.171-3.191-3.172q-8.852,0-17.7,0M10.385,20.5l.167-.032c.606.888,1.161,1.818,1.843,2.643.269.325.923.668,1.223.55a1.687,1.687,0,0,0,.95-1.165c.1-1.991.071-3.99.029-5.985a1.144,1.144,0,0,0-1.212-1.242,1.175,1.175,0,0,0-1.156,1.3c-.019.632,0,1.266,0,2.146-.731-1.075-1.334-1.93-1.9-2.808-.384-.594-.952-.954-1.544-.616a1.834,1.834,0,0,0-.755,1.317c-.085,1.846-.043,3.7-.032,5.546.006.938.429,1.46,1.149,1.478.742.018,1.21-.538,1.24-1.5.017-.542,0-1.086,0-1.629m16.14,3.141a4.216,4.216,0,1,0-.011-8.431,4.216,4.216,0,1,0,.011,8.431m9.112-4.263a3.97,3.97,0,0,0,2.328,3.836,4.088,4.088,0,0,0,4.478-.422c.8-.59.974-1.273.514-1.868-.435-.563-1.092-.585-1.868-.062a1.913,1.913,0,0,1-2.623-.169,1.837,1.837,0,0,1-.051-2.476,1.9,1.9,0,0,1,2.676-.228c.775.522,1.434.5,1.868-.067s.3-1.242-.447-1.815a4.09,4.09,0,0,0-4.468-.508,3.974,3.974,0,0,0-2.406,3.78m11.187-4.163v0c-.44,0-.879,0-1.319,0a1.071,1.071,0,0,0-1.217,1.175q-.015,3.033,0,6.066a1.068,1.068,0,0,0,1.139,1.175q1.406.044,2.813,0a1.144,1.144,0,0,0,.1-2.282c-.434-.057-.88-.025-1.312-.089-.158-.024-.29-.212-.434-.325.148-.105.287-.281.446-.3.434-.055.885.007,1.313-.071a1.169,1.169,0,0,0-.105-2.328c-.406-.043-.823.013-1.228-.035-.158-.019-.3-.2-.444-.308.148-.137.282-.371.446-.392.432-.058.879,0,1.316-.034a1.017,1.017,0,0,0,1.032-1.083,1.023,1.023,0,0,0-1.046-1.155c-.5-.036-1-.007-1.494-.007M41.468,6.378c2.172,0,4.345.007,6.517,0,.87,0,1.377-.442,1.369-1.135s-.515-1.128-1.385-1.129q-6.473-.01-12.946,0c-.863,0-1.4.436-1.426,1.1-.025.71.516,1.159,1.442,1.162,2.143.007,4.286,0,6.429,0M18.785,19.227c-.493-1.243-.867-2.254-1.295-3.242a1.166,1.166,0,1,0-2.161.868q1.125,2.913,2.261,5.822a1.24,1.24,0,0,0,1.216.962c.673-.013.972-.456,1.186-1.006.724-1.858,1.456-3.712,2.169-5.574.322-.84.09-1.544-.548-1.786-.7-.263-1.276.049-1.633.916-.379.92-.73,1.852-1.2,3.04m15.4.256h0c0-1,.03-1.992-.009-2.986-.034-.867-.492-1.312-1.224-1.3s-1.145.471-1.152,1.356q-.025,2.811,0,5.621c.006.923.448,1.45,1.166,1.456s1.193-.53,1.219-1.426.006-1.815.006-2.723M6.318,19.4c0-.966.031-1.933-.009-2.9-.036-.871-.489-1.312-1.221-1.3s-1.143.465-1.151,1.351q-.023,2.81,0,5.619c.006.931.435,1.449,1.158,1.459s1.186-.51,1.219-1.424c.033-.935.007-1.873.006-2.809m38.959-8.276c.936,0,1.872,0,2.808,0a1.118,1.118,0,0,0,1.253-1.077,1.063,1.063,0,0,0-1.095-1.225c-1.986-.049-3.974-.042-5.96,0A1.061,1.061,0,0,0,41.2,10.054a1.138,1.138,0,0,0,1.272,1.067c.936,0,1.872,0,2.808,0" transform="translate(0 0)" fill="#1d3a67"/>
    <path id="Path_3773" data-name="Path 3773" d="M129.955,189.444l-5.042-16.937,16.947,5.039-3.669,2.391c-1.347.879-1.4,1.385-.258,2.528,2.073,2.074,4.149,4.145,6.172,6.166l-3.077,3.061-4.871-4.892c-.5-.5-.992-1-1.5-1.491-.866-.838-1.485-.782-2.144.211-.824,1.241-1.629,2.494-2.561,3.924" transform="translate(-80.876 -111.691)" fill="#1d3a67"/>
    <path id="Path_3774" data-name="Path 3774" d="M12.48,5.288c0,1.62.081,3.372-.031,5.111a1.983,1.983,0,0,1-1.838,1.875c-1.735.137-3.49.038-5.135.038l7-7.024" transform="translate(-3.545 -3.424)" fill="#1d3a67"/>
    <rect id="Rectangle_538" data-name="Rectangle 538" width="26.879" height="6.812" transform="translate(8.056 38.093)" fill="#1d3a67"/>
    <path id="Path_3775" data-name="Path 3775" d="M49.594,85.071v5.811h-.944c-8.335,0-16.669-.012-25,.019-.821,0-1.068-.23-1.033-1.032.058-1.318.026-2.641.014-3.961-.005-.606.22-.928.873-.928q12.9.013,25.8.013a1.412,1.412,0,0,1,.3.077" transform="translate(-14.639 -55.022)" fill="#1d3a67"/>
    <path id="Path_3776" data-name="Path 3776" d="M49.658,134.048v5.825c-.337.015-.648.04-.96.04q-12.382,0-24.763,0c-1.18,0-1.265-.08-1.266-1.235,0-1.439.01-2.878.021-4.317a1.481,1.481,0,0,1,.087-.314Z" transform="translate(-14.677 -86.791)" fill="#1d3a67"/>
    <path id="Path_3777" data-name="Path 3777" d="M113.64,114.989h-2.972c-1.466,0-2.932.023-4.4-.023-.25-.008-.7-.3-.7-.475-.049-2.1-.032-4.211-.032-6.383h8.1Z" transform="translate(-68.328 -69.996)" fill="#1d3a67"/>
    <path id="Path_3778" data-name="Path 3778" d="M113.849,90.861h-8.1V85.006c2.516,0,4.975-.02,7.432.033.229.005.634.471.643.734.059,1.666.03,3.335.03,5.088" transform="translate(-68.465 -55.036)" fill="#1d3a67"/>
    <path id="Path_3779" data-name="Path 3779" d="M105.546,133.952H113.7c0,1.8.024,3.575-.035,5.348-.006.191-.489.52-.755.526-2.257.042-4.514.036-6.771.006-.2,0-.565-.279-.569-.435-.041-1.782-.026-3.565-.026-5.445" transform="translate(-68.335 -86.729)" fill="#1d3a67"/>
    <path id="Path_3780" data-name="Path 3780" d="M71.85,49.653a1.914,1.914,0,0,1,0,3.828,1.914,1.914,0,0,1,0-3.828" transform="translate(-45.302 -32.148)" fill="#1d3a67"/>
  </g>
</svg>
